<?xml version="1.0" encoding="UTF-8"?>
<svg width="24" height="24" viewBox="0 0 24 24" fill="none" xmlns="http://www.w3.org/2000/svg">
  <path d="M22.2647 2.42778C21.98 2.19091 21.6364 2.03567 21.2716 1.97858C20.9068 1.92149 20.5349 1.96469 20.1914 2.10402L2.74177 9.60402C2.36676 9.75768 2.04656 10.0215 1.82145 10.3611C1.59634 10.7006 1.47678 11.1008 1.47656 11.5097C1.47635 11.9187 1.59549 12.319 1.82024 12.6588C2.04499 12.9986 2.36489 13.2628 2.73974 13.417L6.73974 14.917L8.98974 20.917C9.08977 21.1893 9.25394 21.4326 9.46797 21.6261C9.682 21.8195 9.93939 21.9573 10.2172 22.0278C10.495 22.0983 10.7853 22.0995 11.0637 22.0313C11.342 21.9631 11.6005 21.8275 11.8162 21.636L14.8162 18.886L18.9897 22.136C19.3246 22.3935 19.7271 22.5411 20.1462 22.5591C20.5653 22.577 20.9789 22.4644 21.3347 22.2351C21.6905 22.0058 21.9712 21.6705 22.139 21.2725C22.3067 20.8745 22.3539 20.4329 22.2747 20.006L19.2747 3.50602C19.1874 3.03713 18.9584 2.60744 18.6197 2.27602C18.281 1.94461 17.8501 1.72728 17.3847 1.65402L22.2647 2.42778ZM9.23974 14.417L15.9897 10.386L11.9897 14.886L11.4897 15.386L9.23974 14.417ZM10.7397 20.167L11.4897 15.386L13.7397 17.136L10.7397 20.167Z" fill="white"/>
</svg>